<?xml version="1.0" encoding="UTF-8"?>
<svg width="299px" height="299px" viewBox="0 0 299 299" version="1.1" xmlns="http://www.w3.org/2000/svg" xmlns:xlink="http://www.w3.org/1999/xlink">
    <title>Combined Shape</title>
    <g id="Page-1" stroke="none" stroke-width="1" fill="none" fill-rule="evenodd">
        <path d="M149.110266,0 L173.108424,29.1769843 L206.351868,11.2303558 L217.357727,47.3700721 L254.938541,43.5112645 L251.276558,81.1117684 L287.473405,91.9282502 L269.701084,125.265206 L299.003322,149.110266 L269.826338,173.108424 L287.772966,206.351868 L251.63325,217.357727 L255.492058,254.938541 L217.891554,251.276558 L207.075072,287.473405 L173.738116,269.701084 L149.893056,299.003322 L125.894898,269.826338 L92.6514544,287.772966 L81.6455956,251.63325 L44.064781,255.492058 L47.726764,217.891554 L11.5299168,207.075072 L29.3022378,173.738116 L0,149.893056 L29.1769843,125.894898 L11.2303558,92.6514544 L47.3700721,81.6455956 L43.5112645,44.064781 L81.1117684,47.726764 L91.9282502,11.5299168 L125.265206,29.3022378 L149.110266,0 Z M202.293669,78.5 L149.987082,78.5 L166.154032,127.942187 L218.453186,127.942187 L176.114359,158.5 L192.264,207.914 L149.987082,177.384374 L107.677987,207.942187 L149.994515,238.5 L192.303609,207.942187 L192.288,207.931 L193.02703,207.391805 C217.485917,189.275656 227.802448,157.785667 218.765607,128.827843 L218.482918,127.942187 L202.293669,78.5 Z M81.5284104,127.942187 C71.8910138,157.42376 82.4479003,189.720684 107.677987,207.942187 L123.837504,158.5 L81.5284104,127.942187 Z M149.987082,78.5 L97.6879273,78.5 L81.5284104,127.942187 L133.827565,127.942187 L149.987082,78.5 Z" id="Combined-Shape" fill="#FB48C4" fill-rule="nonzero"></path>
    </g>
</svg>